<?xml version="1.0" standalone="no"?>
<!DOCTYPE svg PUBLIC "-//W3C//DTD SVG 20010904//EN"
 "http://www.w3.org/TR/2001/REC-SVG-20010904/DTD/svg10.dtd">
<svg version="1.0" xmlns="http://www.w3.org/2000/svg"
 width="260.000000pt" height="260.000000pt" viewBox="0 0 260.000000 260.000000"
 preserveAspectRatio="xMidYMid meet">
<metadata>
Created by potrace 1.11, written by Peter Selinger 2001-2013
</metadata>
<g transform="translate(0.000000,260.000000) scale(0.100000,-0.100000)"
fill="#000000" stroke="none">
<path d="M681 2483 c-64 -23 -117 -82 -196 -221 -38 -68 -77 -136 -86 -150
-114 -192 -334 -584 -345 -615 -8 -22 -14 -63 -13 -91 l0 -51 16 35 c8 19 20
44 26 55 16 30 66 118 77 135 16 25 121 212 152 270 17 30 34 60 38 65 4 6 19
30 32 55 34 61 59 105 97 168 17 29 31 55 31 57 0 12 90 142 111 162 13 12 49
34 79 49 l55 28 528 1 c387 1 536 -2 562 -11 19 -6 35 -9 35 -5 0 8 -77 54
-100 59 -29 7 -191 11 -620 15 -374 4 -441 3 -479 -10z"/>
<path d="M778 2369 c-16 -4 -28 -5 -28 -3 0 8 -85 -49 -106 -72 -17 -18 -267
-447 -382 -654 -14 -25 -47 -83 -75 -130 -27 -47 -58 -107 -67 -133 -18 -49
-18 -125 -1 -170 6 -14 92 -169 192 -344 100 -175 191 -334 202 -353 98 -176
130 -222 175 -251 26 -16 63 -33 82 -38 19 -5 267 -8 550 -7 l515 1 44 24 c48
25 103 78 124 120 7 14 116 206 242 426 126 220 234 420 241 445 22 86 6 147
-77 290 -51 88 -339 591 -366 640 -51 92 -85 139 -116 162 -73 54 -55 52 -607
54 -283 0 -527 -3 -542 -7z"/>
<path d="M2545 1220 c-3 -5 -4 -10 0 -10 8 0 -32 -75 -152 -285 -60 -105 -112
-197 -116 -205 -4 -8 -17 -31 -28 -50 -12 -19 -66 -114 -121 -210 -104 -183
-130 -218 -188 -255 -78 -49 -82 -49 -625 -51 -300 -1 -526 2 -549 8 -55 14
-53 5 5 -27 51 -27 55 -28 253 -32 110 -2 354 -5 541 -6 l340 -2 47 28 c71 41
43 -3 425 660 85 148 160 285 167 305 13 37 22 142 12 142 -3 0 -8 -4 -11 -10z"/>
</g>
</svg>
