<?xml version="1.0" encoding="utf-8"?>
<!-- Generator: Adobe Illustrator 19.0.0, SVG Export Plug-In . SVG Version: 6.00 Build 0)  -->
<svg version="1.1" xmlns="http://www.w3.org/2000/svg" xmlns:xlink="http://www.w3.org/1999/xlink" x="0px" y="0px"
	 viewBox="0 0 312 300" style="enable-background:new 0 0 312 300;" xml:space="preserve">
<style type="text/css">
	.st0{fill:#27AE60;}
	.st1{fill:#222222;}
	.st2{fill-rule:evenodd;clip-rule:evenodd;fill:#BBBBBB;}
	.st3{fill-rule:evenodd;clip-rule:evenodd;fill:#222222;}
	.st4{fill-rule:evenodd;clip-rule:evenodd;fill:#27AE60;}
	.st5{fill-rule:evenodd;clip-rule:evenodd;fill:#FFFFFF;}
	.st6{fill-rule:evenodd;clip-rule:evenodd;fill:#EDEDED;}
	.st7{fill:#BBBBBB;}
</style>
<g id="Base">
	<g>
		<path class="st0" d="M303.9,156.3c-0.7,4.4-2.2,8.7-4.5,12.6l-55.5,97.3c-6.6,11.6-19,18.9-32.3,18.9H100.5c-5,0-9.8-1-14.3-2.9
			c5.5,5.3,12.9,8.5,20.7,8.6l111.4,1.7c10.9,0.2,21-5.6,26.4-15.1l56.1-97.3C305,172.9,306,164.2,303.9,156.3z"/>
		<path class="st0" d="M68.2,33.9C74.8,22.2,87.2,15,100.5,15h111.1c5.1,0,10,1.1,14.5,3c-5.6-5.5-13.1-8.8-21-8.9L93.8,7.5
			c-10.8-0.2-21,5.6-26.5,15.1l-56.2,97.2c-4.2,7.3-5.2,16-3,24.1c0.7-4.4,2.2-8.7,4.5-12.7L68.2,33.9z"/>
	</g>
	<path class="st1" d="M100.5,278c-10.8,0-20.9-5.9-26.3-15.4l-55.5-97.2c-5.4-9.5-5.4-21.2,0-30.7l55.5-97.2
		C79.6,27.9,89.7,22,100.5,22h111.1c10.8,0,20.9,5.9,26.3,15.4l55.5,97.2c5.4,9.5,5.4,21.2,0,30.7l-55.5,97.2
		c-5.4,9.5-15.5,15.4-26.3,15.4H100.5z"/>
	<path class="st2" d="M87.3,255l-55.5-97.3c-2.7-4.8-2.7-10.7,0-15.4L87.3,45c2.7-4.8,7.8-7.7,13.2-7.7h111.1c5.4,0,10.5,3,13.2,7.7
		l55.5,97.3c2.7,4.8,2.7,10.7,0,15.4L224.8,255c-2.7,4.8-7.8,7.7-13.2,7.7l-111.1,0C95.1,262.7,90,259.7,87.3,255z"/>
	<path class="st3" d="M100.5,35c-6.3,0-12.1,3.4-15.2,8.9l-55.5,97.2c-3.1,5.5-3.1,12.3,0,17.8l55.5,97.3c3.1,5.5,9,8.9,15.2,8.9
		h111.1c6.2,0,12.1-3.4,15.2-8.9l55.5-97.3c3.1-5.5,3.1-12.3,0-17.8l-55.5-97.3c-3.1-5.5-9-8.9-15.2-8.9H100.5z"/>
	<path class="st2" d="M87.3,255l-55.5-97.3c-2.7-4.8-2.7-10.7,0-15.4L87.3,45c2.7-4.8,7.8-7.7,13.2-7.7h111.1c5.4,0,10.5,3,13.2,7.7
		l55.5,97.3c2.7,4.8,2.7,10.7,0,15.4L224.8,255c-2.7,4.8-7.8,7.7-13.2,7.7l-111.1,0C95.1,262.7,90,259.7,87.3,255z M100.5,35
		c-6.3,0-12.1,3.4-15.2,8.9l-55.5,97.2c-3.1,5.5-3.1,12.3,0,17.8l55.5,97.3c3.1,5.5,9,8.9,15.2,8.9h111.1c6.2,0,12.1-3.4,15.2-8.9
		l55.5-97.3c3.1-5.5,3.1-12.3,0-17.8l-55.5-97.3c-3.1-5.5-9-8.9-15.2-8.9H100.5z"/>
</g>
<g id="Ponte">
	<path class="st4" d="M145.1,54.1l1.1,46.2l22.5-1.2l-4-46.1c-1.7-1.1-5.5-1.8-9.9-1.5C150.4,51.7,146.6,52.7,145.1,54.1z
		 M142.3,48.7l2.6-0.1l0,1.1l19.4-1l-0.1-1.1l2.6-0.1l13.7,131.2l-4.9,0.3l-6.3-72.6h-0.1c-1.4-2.1-6.2-3.4-11.7-3.1
		c-5.4,0.3-9.9,2-11.2,4.2l3.1,76.4l-4.9,0.3L142.3,48.7z"/>
	<path class="st4" d="M77.8,109.8l0.4,18.9l10.2-0.5l-1.7-18.8c-0.8-0.5-2.5-0.7-4.5-0.6C80.2,108.8,78.5,109.2,77.8,109.8z
		 M76.5,107.6l1.2-0.1l0,0.4l8.8-0.5l0-0.4l1.2-0.1l5.3,50.4l-2.1,0.1L88.7,131h0c-0.6-0.8-2.8-1.4-5.3-1.2
		c-2.5,0.1-4.5,0.9-5.1,1.7l0.8,27.4l-2.2,0.1L76.5,107.6z"/>
	<polygon class="st4" points="201,161.7 250.7,159.1 250.1,148.3 77.7,145.5 64.7,146.2 	"/>
	<path class="st0" d="M250.3,152.5c-7.3-7.8-14.4-15.7-21.3-23.8c-22-25.5-43.3-52.2-62.7-79.7l0.7-0.3
		c19.3,27.4,40.6,54.1,62.6,79.5c6.7,7.8,13.6,15.5,20.7,23.1L250.3,152.5z"/>
	<path class="st0" d="M250.5,155.9c-8.2-8.8-16.1-17.8-23.9-27c-22.1-26-42.1-51.9-61.5-79.4l0.8-0.4c19.3,27.4,39.3,53.3,61.4,79.2
		c7.6,8.9,15.3,17.6,23.2,26.2L250.5,155.9z"/>
	<path class="st0" d="M77,107.5c19.7,62.3,62.7-37.9,65.4-58.2l1,0.1c-3,22.1-46.7,121.8-66.9,58L77,107.5z"/>
	<path class="st0" d="M77.7,107.5c20.2,62.3,63.3-35.9,66.1-56.2l1,0.1c-3.1,22.1-47,119.8-67.6,56L77.7,107.5z"/>
	<path class="st0" d="M86.5,107c23,62.1,74.3-36.8,77.8-57.1l1.2,0.1c-3.9,22.1-55.8,120.1-79.4,57.5L86.5,107z"/>
	<path class="st0" d="M87.4,107c23.6,62.1,74.5-36.6,78.2-56.9l1.2,0.1c-4,22.1-55.8,120.4-79.9,56.8L87.4,107z"/>
	<polygon class="st4" points="250,147.3 77.6,145.4 78.1,145.2 249.8,143.5 	"/>
	<path class="st0" d="M77.5,109.4c-0.7,6.6-1.5,13.1-2.6,19.3c-1.1,6.2-2.3,12.2-4,17.8l-0.7-0.2c1.6-5.6,2.9-11.5,3.9-17.8
		c1.1-6.2,1.9-12.7,2.6-19.3L77.5,109.4z"/>
	<path class="st0" d="M87.3,108.2c-0.7,6.6-1.7,13-2.9,19.2c-1.2,6.3-2.8,13-4.5,18.6l-0.7-0.2c1.6-5.6,3.2-12.3,4.4-18.5
		c1.2-6.2,2.1-12.6,2.8-19.2L87.3,108.2z"/>
	
		<rect x="78.2" y="147.1" transform="matrix(-0.9986 5.305019e-02 -5.305019e-02 -0.9986 176.8716 291.2751)" class="st4" width="12.8" height="1.9"/>
	<polygon class="st4" points="146.5,154.3 170.7,153 170.9,155.9 146.6,157.2 	"/>
	<polygon class="st0" points="144.2,51.8 203.4,150.4 202.4,151 143.3,52.4 	"/>
	<polygon class="st0" points="145.6,50.6 207.7,149.3 206.7,149.9 144.7,51.2 	"/>
</g>
<g id="Texto">
	<rect x="67.7" y="161.5" class="st3" width="182.2" height="31.3"/>
	<g>
		<polygon class="st5" points="69.3,174.9 69.3,202.4 75.7,202.4 75.7,191.5 85,191.5 85,187.1 75.7,187.1 75.7,179.4 86.9,179.4 
			86.9,174.9 		"/>
		<polygon class="st5" points="95,174.9 88.7,174.9 88.7,202.4 105.1,202.4 105.1,197.9 95,197.9 		"/>
		<path class="st5" d="M126.7,192.6c-0.3,1.2-0.8,2.1-1.5,2.9c-0.6,0.8-1.4,1.4-2.4,1.8c-1,0.4-2,0.6-3.2,0.6
			c-1.2,0-2.3-0.2-3.3-0.6s-1.8-1-2.4-1.8c-0.7-0.8-1.2-1.8-1.5-2.9c-0.4-1.1-0.5-2.4-0.5-3.9c0-1.4,0.2-2.7,0.5-3.9
			c0.3-1.1,0.8-2.1,1.5-2.9c0.7-0.8,1.5-1.4,2.4-1.8c0.9-0.4,2-0.6,3.3-0.6c1.2,0,2.3,0.2,3.2,0.6c0.9,0.4,1.8,1,2.4,1.8
			c0.7,0.8,1.2,1.8,1.5,2.9c0.3,1.1,0.5,2.4,0.5,3.9C127.2,190.1,127.1,191.4,126.7,192.6z M132.7,183.2c-0.7-1.7-1.6-3.1-2.9-4.4
			c-1.2-1.2-2.7-2.2-4.5-2.9c-1.7-0.7-3.7-1.1-5.8-1.1c-2.1,0-4,0.4-5.8,1.1c-1.7,0.7-3.2,1.7-4.5,2.9c-1.2,1.2-2.2,2.7-2.9,4.3
			c-0.7,1.7-1,3.5-1,5.4c0,2,0.3,3.8,1,5.4c0.7,1.7,1.6,3.1,2.9,4.4c1.2,1.2,2.7,2.2,4.5,2.9c1.7,0.7,3.7,1,5.8,1c2.1,0,4-0.3,5.8-1
			c1.7-0.7,3.2-1.7,4.5-2.9c1.2-1.2,2.2-2.7,2.9-4.4c0.7-1.7,1-3.5,1-5.4C133.7,186.7,133.4,184.9,132.7,183.2z"/>
		<path class="st5" d="M141.4,179.4h2.5c1.6,0,2.8,0.4,3.6,1c0.8,0.7,1.2,1.7,1.2,2.9c0,0.6-0.1,1.2-0.3,1.7c-0.2,0.5-0.5,1-0.8,1.4
			c-0.4,0.4-0.9,0.7-1.5,0.9c-0.6,0.2-1.3,0.3-2.2,0.3h-2.5V179.4z M143,192.2c0.5,0,0.9,0.1,1.1,0.2c0.3,0.2,0.5,0.4,0.7,0.8l4.5,8
			c0.4,0.8,1.2,1.2,2.3,1.2h5.7l-5.8-9.6c-0.3-0.5-0.6-0.8-1-1.2c-0.4-0.3-0.8-0.6-1.2-0.8c0.9-0.3,1.7-0.8,2.3-1.3
			c0.7-0.5,1.2-1.1,1.7-1.8c0.5-0.7,0.8-1.4,1.1-2.2c0.2-0.8,0.4-1.6,0.4-2.5c0-1.2-0.2-2.2-0.6-3.2c-0.4-1-1-1.8-1.9-2.6
			c-0.9-0.7-2-1.3-3.4-1.7c-1.4-0.4-3.1-0.6-5-0.6h-8.8v27.5h6.3v-10.2H143z"/>
		<rect x="158.8" y="174.9" class="st5" width="6.3" height="27.5"/>
		<path class="st5" d="M175.1,179.4h3.3c0.8,0,1.5,0.1,2.1,0.3c0.6,0.2,1,0.5,1.4,0.9c0.4,0.4,0.7,0.8,0.9,1.4
			c0.2,0.5,0.3,1.1,0.3,1.8c0,1.5-0.4,2.6-1.1,3.4c-0.7,0.8-1.9,1.2-3.5,1.2h-3.3V179.4z M178.4,192.8c1.9,0,3.5-0.2,4.9-0.7
			c1.4-0.4,2.5-1.1,3.4-1.9c0.9-0.8,1.6-1.8,2-2.9c0.4-1.1,0.7-2.3,0.7-3.7c0-1.2-0.2-2.4-0.6-3.5c-0.4-1.1-1.1-2-2-2.8
			c-0.9-0.8-2-1.4-3.4-1.8c-1.4-0.5-3-0.7-4.9-0.7h-9.6v27.5h6.3v-9.6H178.4z"/>
		<path class="st5" d="M201.7,184.3c0.2-0.5,0.4-1,0.6-1.6c0.2-0.6,0.4-1.3,0.6-2.1c0.2,0.7,0.4,1.4,0.6,2c0.2,0.6,0.4,1.2,0.6,1.6
			l2.5,7.3h-7.4L201.7,184.3z M206.1,174.9h-6.5l-10.5,27.5h4.9c0.5,0,1-0.1,1.3-0.4c0.4-0.3,0.6-0.6,0.7-1l1.6-5h10.3l1.6,5
			c0.1,0.4,0.4,0.8,0.7,1c0.4,0.3,0.8,0.4,1.4,0.4h4.9L206.1,174.9z"/>
		<path class="st6" d="M228.6,174.9h-6.3v17.9c0,1-0.1,1.8-0.2,2.4c-0.1,0.7-0.4,1.2-0.7,1.6c-0.3,0.4-0.7,0.7-1.1,0.9
			c-0.4,0.2-1,0.3-1.6,0.3c-0.4,0-0.8,0-1.1-0.1c-0.3-0.1-0.6-0.1-0.8-0.1c-0.4,0-0.7,0.1-1,0.3c-0.2,0.2-0.4,0.4-0.4,0.7l-0.3,3.3
			c0.8,0.2,1.5,0.3,2.2,0.3c0.7,0.1,1.4,0.1,2.1,0.1c1.6,0,2.9-0.2,4.1-0.7c1.1-0.5,2.1-1.2,2.9-2.1c0.8-0.9,1.3-1.9,1.7-3.2
			c0.4-1.2,0.6-2.6,0.6-4.1V174.9z"/>
		<path class="st6" d="M248.1,177.5c-0.5-0.4-1-0.8-1.6-1.1c-0.6-0.3-1.3-0.6-2-0.8c-0.7-0.2-1.5-0.4-2.3-0.5
			c-0.8-0.1-1.6-0.2-2.4-0.2c-1.5,0-2.8,0.2-4,0.7c-1.2,0.5-2.2,1.1-2.9,1.8c-0.8,0.8-1.4,1.6-1.8,2.6c-0.4,1-0.6,2-0.6,3
			c0,1.3,0.2,2.4,0.5,3.2c0.4,0.9,0.8,1.6,1.4,2.2c0.6,0.6,1.2,1.1,1.9,1.4s1.5,0.7,2.2,0.9c0.8,0.2,1.5,0.5,2.2,0.7
			c0.7,0.2,1.4,0.4,1.9,0.7c0.6,0.3,1,0.6,1.4,1c0.4,0.4,0.5,0.9,0.5,1.6c0,1.1-0.3,1.9-1,2.4c-0.6,0.5-1.5,0.8-2.7,0.8
			c-0.8,0-1.6-0.1-2.2-0.4c-0.6-0.2-1.2-0.5-1.6-0.8c-0.5-0.3-0.9-0.6-1.3-0.8c-0.4-0.2-0.8-0.4-1.1-0.4c-0.3,0-0.6,0.1-0.8,0.2
			c-0.3,0.1-0.4,0.3-0.6,0.5l-1.9,2.9c0.5,0.5,1.2,0.9,1.9,1.3c0.7,0.4,1.5,0.7,2.3,1c0.8,0.3,1.7,0.5,2.6,0.6
			c0.9,0.2,1.7,0.2,2.6,0.2c1.5,0,2.9-0.2,4.1-0.7c1.2-0.5,2.2-1.1,3.1-1.9c0.8-0.8,1.5-1.8,1.9-2.9c0.4-1.1,0.7-2.3,0.7-3.6
			c0-1.1-0.2-2.1-0.5-2.9c-0.4-0.8-0.8-1.5-1.4-2.1c-0.6-0.6-1.2-1-1.9-1.4c-0.7-0.4-1.5-0.7-2.2-0.9c-0.8-0.3-1.5-0.5-2.2-0.7
			c-0.7-0.2-1.4-0.5-1.9-0.7c-0.6-0.3-1-0.6-1.4-0.9c-0.3-0.4-0.5-0.8-0.5-1.4c0-0.9,0.3-1.6,0.9-2.1c0.6-0.5,1.5-0.8,2.6-0.8
			c0.7,0,1.3,0.1,1.8,0.3c0.5,0.2,1,0.4,1.4,0.6l1.1,0.6c0.3,0.2,0.6,0.3,0.9,0.3c0.3,0,0.6-0.1,0.8-0.2c0.2-0.1,0.4-0.4,0.6-0.7
			L248.1,177.5z"/>
	</g>
</g>
<g id="Estrelas">
	<g>
		<g>
			<polygon class="st7" points="155.6,244.2 154.1,241.1 150.7,240.6 153.1,238.2 152.6,234.8 155.6,236.4 158.6,234.8 158.1,238.2 
				160.5,240.6 157.1,241.1 			"/>
		</g>
		<g>
			<polygon class="st7" points="176.9,241 174.9,238.2 171.4,238.3 173.4,235.5 172.3,232.2 175.5,233.3 178.2,231.2 178.3,234.6 
				181.1,236.6 177.9,237.7 			"/>
		</g>
		<g>
			<polygon class="st7" points="134.3,241 133.4,237.7 130.1,236.6 132.9,234.6 133,231.2 135.7,233.3 138.9,232.2 137.8,235.5 
				139.8,238.3 136.4,238.2 			"/>
		</g>
	</g>
</g>
</svg>
