<?xml version="1.0" encoding="UTF-8"?>
<svg width="158px" height="170px" viewBox="0 0 158 170" version="1.1" xmlns="http://www.w3.org/2000/svg" xmlns:xlink="http://www.w3.org/1999/xlink">
    <!-- Generator: Sketch 52.2 (67145) - http://www.bohemiancoding.com/sketch -->
    <title>Group 19</title>
    <desc>Created with Sketch.</desc>
    <g id="Page-1" stroke="none" stroke-width="1" fill="none" fill-rule="evenodd">
        <g id="Group-19">
            <polygon id="Fill-1" fill="#000000" points="0 169.053 157.401 169.053 157.401 0 0 0"></polygon>
            <polygon id="Fill-2" fill="#FFFFFF" points="40.377 38.6943 54.437 38.6943 54.437 43.3473 45.657 43.3473 45.657 47.5723 52.754 47.5723 52.754 52.0943 45.657 52.0943 45.657 60.8073 40.377 60.8073"></polygon>
            <polygon id="Fill-3" fill="#FFFFFF" points="74.5743 38.6943 79.8543 38.6943 79.8543 56.1213 88.5683 56.1213 88.5683 60.8073 74.5743 60.8073"></polygon>
            <g id="Group-18" transform="translate(37.000000, 38.053000)">
                <path d="M72.7423,8.7272 L72.7423,14.6682 C72.7423,16.6492 74.0963,18.0012 76.0103,18.0012 C77.9243,18.0012 79.2773,16.6492 79.2773,14.6682 L79.2773,8.7272 C79.2773,6.7482 77.9243,5.3942 76.0103,5.3942 C74.0963,5.3942 72.7423,6.7482 72.7423,8.7272 M84.5583,8.3972 L84.5583,14.9982 C84.5583,19.7182 81.0263,23.0182 76.0103,23.0182 C70.9933,23.0182 67.4623,19.7182 67.4623,14.9982 L67.4623,8.3972 C67.4623,3.6772 70.9933,0.3772 76.0103,0.3772 C81.0263,0.3772 84.5583,3.6772 84.5583,8.3972" id="Fill-4" fill="#FFFFFF"></path>
                <path d="M7.8985,45.0475 L10.5055,45.0475 C11.9245,45.0475 12.9485,44.0905 12.9485,42.6715 C12.9485,41.2845 11.9245,40.2945 10.5055,40.2945 L7.8985,40.2945 L7.8985,45.0475 Z M12.9485,57.7545 L9.0865,49.7345 L7.8985,49.7345 L7.8985,57.7545 L2.6185,57.7545 L2.6185,35.6415 L10.8365,35.6415 C15.3905,35.6415 18.5595,38.5455 18.5595,42.6715 C18.5595,45.7405 16.8425,48.1165 14.1035,49.1735 L18.5915,57.7545 L12.9485,57.7545 Z" id="Fill-6" fill="#FFFFFF"></path>
                <polygon id="Fill-8" fill="#FFFFFF" points="36.881 53.068 41.369 53.068 41.369 40.295 37.211 40.295 37.211 35.641 50.809 35.641 50.809 40.295 46.651 40.295 46.651 53.068 51.139 53.068 51.139 57.755 36.881 57.755"></polygon>
                <path d="M78.3868,42.5065 C78.3868,41.2195 77.4948,40.2945 76.1748,40.2945 L73.6668,40.2945 L73.6668,44.6845 L76.1748,44.6845 C77.4948,44.6845 78.3868,43.7605 78.3868,42.5065 Z M76.5048,35.6415 C80.9278,35.6415 83.9968,38.4805 83.9968,42.5065 C83.9968,46.4995 80.9278,49.3715 76.5048,49.3715 L73.6668,49.3715 L73.6668,57.7545 L68.3858,57.7545 L68.3858,35.6415 L76.5048,35.6415 Z" id="Fill-10" fill="#FFFFFF"></path>
                <path d="M10.0108,77.1764 L8.5588,83.6784 L11.4628,83.6784 L10.0108,77.1764 Z M12.4868,88.1994 L7.5348,88.1994 L6.4798,92.7544 L0.8678,92.7544 L6.9418,70.6414 L13.0798,70.6414 L19.1198,92.7544 L13.5418,92.7544 L12.4868,88.1994 Z" id="Fill-12" fill="#FFFFFF"></path>
                <path d="M37.5743,88.068 L42.1623,88.068 C43.1193,88.068 43.8113,87.408 43.8113,86.418 L43.8453,75.295 L39.2243,75.295 L39.2243,70.641 L51.4353,70.641 L51.4353,75.295 L49.1263,75.295 L49.1263,86.748 C49.1263,90.279 46.3873,92.755 42.4913,92.755 L37.5743,92.755 L37.5743,88.068 Z" id="Fill-14" fill="#40DB4E"></path>
                <path d="M71.422,85.526 C72.347,86.979 74.096,88.002 75.68,88.002 C77.132,88.002 78.122,87.21 78.122,86.121 C78.122,82.325 68.154,84.239 68.154,77.308 C68.154,73.249 71.323,70.378 75.68,70.378 C78.485,70.378 81.653,71.73 83.304,73.677 L80.235,77.375 C78.947,76.186 77.264,75.394 75.68,75.394 C74.591,75.394 73.766,76.054 73.766,76.978 C73.766,80.147 83.734,78.2 83.734,85.791 C83.734,90.015 80.4,93.018 75.68,93.018 C72.182,93.018 68.815,91.401 67.594,89.091 L71.422,85.526 Z" id="Fill-16" fill="#40DB4E"></path>
            </g>
        </g>
    </g>
</svg>